<svg fill="#000000" xmlns="http://www.w3.org/2000/svg" viewBox="0 0 50 50" width="50px" height="50px"><path d="M 47.203125 25.503906 C 46.207031 24.640625 45.054688 24.007813 43.863281 23.570313 C 47.203125 22.34375 49.589844 18.949219 48.925781 16.21875 C 48.425781 14.164063 46.570313 11.972656 42.859375 11.972656 C 41.164063 11.972656 39.769531 12.222656 38.453125 12.707031 C 39.476563 10.683594 40.15625 8.027344 39.511719 5.601563 C 39.03125 3.800781 37.613281 1.425781 33.59375 0.347656 C 30.902344 -0.375 28.574219 0.0234375 26.667969 1.535156 C 24.976563 2.878906 23.921875 4.910156 23.316406 6.871094 C 21.214844 2.125 17.589844 0.925781 16.046875 0.925781 C 14.246094 0.925781 11.863281 2.230469 11 4.421875 C 10.105469 6.6875 10.933594 10.171875 12.972656 13.578125 C 10.882813 12.703125 9.003906 12.453125 7.566406 12.453125 C 3.800781 12.453125 0 14.835938 0 20.15625 C 0 22.023438 0.660156 23.539063 1.964844 24.65625 C 3.15625 25.675781 4.730469 26.195313 6.257813 26.429688 C 3.835938 28.257813 2.25 30.878906 2.863281 33.523438 C 3.398438 35.832031 5.6875 37.210938 8.984375 37.210938 C 9.730469 37.210938 10.996094 37.15625 12.304688 36.910156 C 11.039063 38.691406 10.203125 40.949219 10.203125 42.734375 C 10.203125 44.621094 11.609375 50 17.855469 50 C 20.386719 50 22.40625 49.183594 23.859375 47.574219 C 25.050781 46.253906 25.6875 44.582031 26.011719 42.953125 C 27.636719 45.242188 30.164063 46.882813 32.121094 46.882813 C 32.214844 46.882813 32.304688 46.878906 32.390625 46.871094 C 34.203125 46.726563 36.898438 45.164063 36.898438 41.460938 C 36.898438 39.890625 36.789063 38.535156 36.582031 37.378906 C 39.023438 38.859375 41.484375 39.136719 42.882813 39.136719 C 47.339844 39.136719 50 36.332031 50 31.632813 C 50 29.214844 49.03125 27.09375 47.203125 25.503906 Z M 46.980469 16.6875 C 47.375 18.3125 45.546875 20.992188 42.847656 21.808594 C 41.601563 22.183594 40.53125 22.46875 39.371094 22.648438 C 37.40625 22.949219 33.136719 23.613281 31.390625 23.886719 C 31.226563 23.035156 30.90625 22.242188 30.460938 21.527344 C 31.136719 20.839844 32.785156 19.164063 34.472656 17.464844 C 37.589844 15.007813 39.480469 13.972656 42.859375 13.972656 C 45.980469 13.972656 46.78125 15.871094 46.980469 16.6875 Z M 24.421875 30.277344 C 21.613281 30.277344 19.328125 28.007813 19.328125 25.214844 C 19.328125 22.425781 21.613281 20.152344 24.421875 20.152344 C 27.234375 20.152344 29.519531 22.425781 29.519531 25.214844 C 29.519531 28.007813 27.234375 30.277344 24.421875 30.277344 Z M 24.660156 11 C 24.59375 8.90625 25.578125 4.949219 27.910156 3.101563 C 29.292969 2.007813 31.027344 1.726563 33.074219 2.277344 C 35.5625 2.945313 37.078125 4.238281 37.578125 6.113281 C 38.3125 8.878906 36.699219 12.410156 35.304688 13.800781 C 34.636719 14.464844 33.894531 15.210938 33.152344 15.957031 C 33.136719 15.972656 33.121094 15.980469 33.101563 15.996094 C 33.074219 16.019531 33.058594 16.050781 33.035156 16.078125 C 31.457031 17.667969 29.917969 19.230469 29.175781 19.988281 C 28.183594 19.09375 26.941406 18.476563 25.5625 18.257813 L 24.652344 11.710938 C 24.636719 11.597656 24.613281 11.5 24.597656 11.390625 C 24.640625 11.269531 24.664063 11.136719 24.660156 11 Z M 12.859375 5.15625 C 13.378906 3.839844 14.957031 2.925781 16.046875 2.925781 C 17.433594 2.925781 21.632813 4.589844 22.671875 11.988281 L 23.539063 18.214844 C 22.542969 18.339844 21.613281 18.671875 20.789063 19.160156 C 20.257813 18.726563 19.015625 17.703125 17.96875 16.796875 C 17.933594 16.742188 17.90625 16.679688 17.859375 16.632813 C 13.789063 12.496094 11.988281 7.359375 12.859375 5.15625 Z M 3.265625 23.136719 C 2.414063 22.40625 2 21.433594 2 20.15625 C 2 14.726563 6.636719 14.453125 7.566406 14.453125 C 10.65625 14.453125 13.628906 15.675781 16.402344 18.089844 C 17.34375 18.90625 18.511719 19.878906 19.203125 20.445313 C 18.539063 21.164063 18.023438 22.019531 17.703125 22.964844 C 17.011719 23.027344 14.339844 23.3125 10.589844 24.304688 C 10.386719 24.359375 10.183594 24.425781 9.980469 24.492188 C 8.382813 24.714844 5.101563 24.707031 3.265625 23.136719 Z M 22.375 46.234375 C 21.304688 47.421875 19.824219 48 17.855469 48 C 12.355469 48 12.203125 42.789063 12.203125 42.734375 C 12.203125 41.125 13.199219 38.796875 14.519531 37.316406 C 15.714844 35.980469 19.152344 32.105469 20.226563 30.894531 C 21.183594 31.601563 22.328125 32.070313 23.570313 32.222656 C 23.652344 32.910156 23.875 34.734375 24.25 37.652344 C 24.238281 37.734375 24.21875 37.8125 24.226563 37.898438 C 24.363281 39.222656 24.632813 43.730469 22.375 46.234375 Z M 32.230469 44.878906 C 30.675781 45.003906 26.863281 42.269531 26.429688 38.910156 C 25.972656 35.382813 25.691406 33.121094 25.578125 32.175781 C 26.753906 31.984375 27.832031 31.503906 28.738281 30.808594 C 29.625 31.574219 31.597656 33.273438 33.65625 35.070313 C 33.675781 35.101563 33.679688 35.136719 33.703125 35.167969 C 34.148438 35.761719 34.898438 37.363281 34.898438 41.460938 C 34.898438 44.625 32.257813 44.875 32.230469 44.878906 Z M 42.882813 37.136719 C 41.449219 37.136719 38.683594 36.820313 36.257813 34.6875 C 33.859375 32.582031 31.28125 30.359375 30.144531 29.378906 C 30.878906 28.382813 31.359375 27.191406 31.484375 25.898438 C 32.765625 25.695313 35.964844 25.199219 38.230469 24.847656 C 38.253906 24.84375 38.269531 24.851563 38.292969 24.851563 C 40.40625 24.546875 43.6875 25.097656 45.890625 27.015625 C 47.289063 28.230469 48 29.78125 48 31.632813 C 48 36.183594 45.21875 37.136719 42.882813 37.136719 Z"/></svg>